<?xml version="1.0"?><svg width="533.3333333333333" height="533.3333333333333" xmlns="http://www.w3.org/2000/svg">
 <title>spaceship</title>
 <g>
  <title>Layer 1</title>
  <g transform="rotate(47.9725, 260.23, 274.633)" id="svg_1">
   <path fill="#ffaa56" fill-rule="evenodd" stroke-width="0" id="path671" d="m275.734009,344.319275c0,0 8.846313,26.223419 18.871521,48.275146c10.02594,22.052429 27.718567,32.779938 30.07782,32.779938c2.358521,0 4.717651,-12.515656 4.127869,-19.667542c-0.589752,-7.151886 -17.102844,-21.45639 11.205536,1.191406c28.307709,22.647766 48.358856,32.183868 46.589447,24.435944c2.949005,-19.072205 -30.077087,-59.003326 -8.845642,-51.85144c21.230774,7.151886 57.20517,23.839874 34.7948,-2.384186c-22.410339,-26.223419 -45.410492,-38.143677 -25.948486,-37.547668c19.461365,0.596069 38.332916,9.536133 28.897522,-7.747925c-9.436157,-17.284058 -54.832764,-44.16394 -74.294128,-55.48819c-15.333435,7.747955 -45.424438,28.072693 -65.476257,68.004517z"/>
   <path fill="#f7f747" fill-rule="evenodd" stroke-width="17.5" stroke-linejoin="round" id="path672" d="m285.236816,329.070343c0,0 6.460693,31.12912 13.508698,40.526031c7.048035,9.397614 8.810211,8.222839 10.572418,-4.698456c1.762177,-12.921265 -10.572418,-25.843262 10.571686,-11.74649c21.144806,14.096069 39.351959,31.71582 28.780243,9.984314c-10.572388,-21.731506 -13.509369,-27.017365 1.174103,-19.381927c14.683472,7.635406 28.780212,13.508667 11.159088,-7.635437c-13.507996,-15.270844 13.508698,-19.382599 18.207825,-21.144104c11.15979,1.762207 -47.574036,-31.129822 -53.447327,-31.129822c-6.461304,1.174805 -38.177826,40.526764 -40.526733,45.225891z"/>
   <path fill="#00e5ff" fill-rule="evenodd" stroke="#000000" stroke-width="10" stroke-linejoin="round" id="path663" d="m100.811935,115.27832c54.622604,1.174561 192.647049,23.493408 245.507645,159.16922c-18.207825,3.524384 -62.84491,46.987366 -69.892944,71.06778c-134.50058,-68.71817 -172.678001,-177.376373 -175.6147,-230.237l0,0z"/>
   <path fill="#5656ff" fill-rule="evenodd" stroke="#000000" stroke-width="10" stroke-linejoin="round" id="path664" d="m201.834717,296.178864c0,0 2.348877,59.908661 2.348877,60.496033c0,0.587402 72.243256,33.478699 76.354309,35.240875l-3.523682,-46.987366c-6.460632,0.587402 -64.020386,-36.414948 -75.179504,-48.749542z"/>
   <path fill="#5656ff" fill-rule="evenodd" stroke="#000000" stroke-width="10" stroke-linejoin="round" id="path665" d="m299.561157,198.575897c0,0 59.245728,2.646088 59.832947,2.660522c0.587189,0.014435 31.693237,73.044128 33.353851,77.197266l-46.886597,-4.677277c-6.30249,-22.890106 -32.481842,-61.371704 -46.300201,-75.180511z"/>
   <path fill="#00007f" fill-rule="evenodd" stroke="#000000" stroke-width="10" stroke-linejoin="round" id="path666" d="m251.477478,239.316864c0,0 9.877625,23.636078 11.545044,27.489655c2.046021,2.596405 53.744476,44.786255 57.539368,47.153717l-2.201904,-15.017822c-5.537476,-5.332703 -53.200317,-47.113434 -66.882507,-59.625549z"/>
   <path fill="#5656ff" fill-rule="evenodd" stroke="#000000" stroke-width="10" stroke-linejoin="round" id="path667" d="m249.620911,238.783783l-11.61525,16.818481l14.300278,24.752228l59.400177,46.925293l8.580688,-12.8461l-56.793915,-47.961304l-13.871979,-27.688599z"/>
   <path fill="#bfbfbf" fill-rule="evenodd" stroke="#000000" stroke-width="12.5" stroke-linejoin="round" id="path668" d="m174.817139,184.584595c-19.969864,27.017334 21.143433,60.496033 40.526047,36.414948c23.493683,-29.366943 -17.032364,-57.559082 -40.526047,-36.414948z"/>
   <path fill="#007fff" fill-rule="evenodd" stroke="#000000" stroke-width="10" stroke-linejoin="round" id="path669" d="m180.102997,186.828186c14.683472,-14.096069 48.748856,2.936951 33.478699,28.19281c-17.033051,21.730804 -51.685837,-5.87323 -33.478699,-28.19281z"/>
   <path fill="#ffffff" fill-opacity="0.75" fill-rule="evenodd" stroke-width="12.5" stroke-linejoin="round" id="path670" d="m191.262115,186.903687c-4.752411,3.281616 -17.248138,13.593079 -7.04805,25.873016c8.810211,2.349579 21.144104,-24.698242 7.04805,-25.873016z"/>
  </g>
 </g>

</svg>